<?xml version="1.0" encoding="UTF-8" standalone="no"?><svg xmlns="http://www.w3.org/2000/svg" xmlns:xlink="http://www.w3.org/1999/xlink" contentScriptType="application/ecmascript" contentStyleType="text/css" height="657px" preserveAspectRatio="none" style="width:1445px;height:657px;" version="1.1" viewBox="0 0 1445 657" width="1445px" zoomAndPan="magnify"><defs><filter height="300%" id="f14vdyvh04jf8w" width="300%" x="-1" y="-1"><feGaussianBlur result="blurOut" stdDeviation="2.0"/><feColorMatrix in="blurOut" result="blurOut2" type="matrix" values="0 0 0 0 0 0 0 0 0 0 0 0 0 0 0 0 0 0 .4 0"/><feOffset dx="4.0" dy="4.0" in="blurOut2" result="blurOut3"/><feBlend in="SourceGraphic" in2="blurOut3" mode="normal"/></filter></defs><g><!--class Pokemon--><rect fill="#FEFECE" filter="url(#f14vdyvh04jf8w)" height="99.2188" id="Pokemon" style="stroke: #A80036; stroke-width: 1.5;" width="189" x="184.464" y="153"/><ellipse cx="245.714" cy="169" fill="#ADD1B2" rx="11" ry="11" style="stroke: #A80036; stroke-width: 1.0;"/><path d="M248.6828,174.6406 Q248.1046,174.9375 247.464,175.0859 Q246.8234,175.2344 246.1203,175.2344 Q243.6203,175.2344 242.2999,173.5859 Q240.9796,171.9375 240.9796,168.8125 Q240.9796,165.6875 242.2999,164.0313 Q243.6203,162.375 246.1203,162.375 Q246.8234,162.375 247.4718,162.5313 Q248.1203,162.6875 248.6828,162.9844 L248.6828,165.7031 Q248.0578,165.125 247.464,164.8516 Q246.8703,164.5781 246.2453,164.5781 Q244.9015,164.5781 244.214,165.6484 Q243.5265,166.7188 243.5265,168.8125 Q243.5265,170.9063 244.214,171.9766 Q244.9015,173.0469 246.2453,173.0469 Q246.8703,173.0469 247.464,172.7734 Q248.0578,172.5 248.6828,171.9219 L248.6828,174.6406 Z "/><text fill="#000000" font-family="sans-serif" font-size="12" lengthAdjust="spacingAndGlyphs" textLength="58" x="266.214" y="173.1543">Pokemon</text><line style="stroke: #A80036; stroke-width: 1.5;" x1="185.464" x2="372.464" y1="185" y2="185"/><ellipse cx="195.464" cy="196.9023" fill="none" rx="3" ry="3" style="stroke: #038048; stroke-width: 1.0;"/><text fill="#000000" font-family="sans-serif" font-size="11" lengthAdjust="spacingAndGlyphs" text-decoration="underline" textLength="114" x="204.464" y="199.2104">INTEGER PokedexID,</text><ellipse cx="195.464" cy="209.707" fill="none" rx="3" ry="3" style="stroke: #038048; stroke-width: 1.0;"/><text fill="#000000" font-family="sans-serif" font-size="11" lengthAdjust="spacingAndGlyphs" textLength="69" x="204.464" y="212.0151">TEXT Name,</text><ellipse cx="195.464" cy="222.5117" fill="none" rx="3" ry="3" style="stroke: #038048; stroke-width: 1.0;"/><text fill="#000000" font-family="sans-serif" font-size="11" lengthAdjust="spacingAndGlyphs" textLength="163" x="204.464" y="224.8198">INTEGER GenderDistribution,</text><ellipse cx="195.464" cy="235.3164" fill="none" rx="3" ry="3" style="stroke: #038048; stroke-width: 1.0;"/><text fill="#000000" font-family="sans-serif" font-size="11" lengthAdjust="spacingAndGlyphs" textLength="121" x="204.464" y="237.6245">BOOLEAN Legendary,</text><line style="stroke: #A80036; stroke-width: 1.5;" x1="185.464" x2="372.464" y1="244.2188" y2="244.2188"/><!--class PokemonEvolutions--><rect fill="#FEFECE" filter="url(#f14vdyvh04jf8w)" height="73.6094" id="PokemonEvolutions" style="stroke: #A80036; stroke-width: 1.5;" width="154" x="202.964" y="376"/><ellipse cx="217.964" cy="392" fill="#ADD1B2" rx="11" ry="11" style="stroke: #A80036; stroke-width: 1.0;"/><path d="M220.9328,397.6406 Q220.3546,397.9375 219.714,398.0859 Q219.0734,398.2344 218.3703,398.2344 Q215.8703,398.2344 214.5499,396.5859 Q213.2296,394.9375 213.2296,391.8125 Q213.2296,388.6875 214.5499,387.0313 Q215.8703,385.375 218.3703,385.375 Q219.0734,385.375 219.7218,385.5313 Q220.3703,385.6875 220.9328,385.9844 L220.9328,388.7031 Q220.3078,388.125 219.714,387.8516 Q219.1203,387.5781 218.4953,387.5781 Q217.1515,387.5781 216.464,388.6484 Q215.7765,389.7188 215.7765,391.8125 Q215.7765,393.9063 216.464,394.9766 Q217.1515,396.0469 218.4953,396.0469 Q219.1203,396.0469 219.714,395.7734 Q220.3078,395.5 220.9328,394.9219 L220.9328,397.6406 Z "/><text fill="#000000" font-family="sans-serif" font-size="12" lengthAdjust="spacingAndGlyphs" textLength="122" x="231.964" y="396.1543">PokemonEvolutions</text><line style="stroke: #A80036; stroke-width: 1.5;" x1="203.964" x2="355.964" y1="408" y2="408"/><line style="stroke: #A80036; stroke-width: 1.0;" x1="203.964" x2="355.964" y1="416" y2="416"/><polygon fill="none" points="213.964,423.9023,209.964,429.9023,217.964,429.9023" style="stroke: #1963A0; stroke-width: 1.0;"/><text fill="#000000" font-family="sans-serif" font-size="11" lengthAdjust="spacingAndGlyphs" textLength="33" x="222.964" y="430.2104">Base,</text><polygon fill="none" points="213.964,436.707,209.964,442.707,217.964,442.707" style="stroke: #1963A0; stroke-width: 1.0;"/><text fill="#000000" font-family="sans-serif" font-size="11" lengthAdjust="spacingAndGlyphs" textLength="55" x="222.964" y="443.0151">Evolution,</text><!--class PokemonAppearance--><rect fill="#FEFECE" filter="url(#f14vdyvh04jf8w)" height="163.2422" id="PokemonAppearance" style="stroke: #A80036; stroke-width: 1.5;" width="172" x="407.964" y="332"/><ellipse cx="425.664" cy="348" fill="#ADD1B2" rx="11" ry="11" style="stroke: #A80036; stroke-width: 1.0;"/><path d="M428.6328,353.6406 Q428.0546,353.9375 427.414,354.0859 Q426.7734,354.2344 426.0703,354.2344 Q423.5703,354.2344 422.2499,352.5859 Q420.9296,350.9375 420.9296,347.8125 Q420.9296,344.6875 422.2499,343.0313 Q423.5703,341.375 426.0703,341.375 Q426.7734,341.375 427.4218,341.5313 Q428.0703,341.6875 428.6328,341.9844 L428.6328,344.7031 Q428.0078,344.125 427.414,343.8516 Q426.8203,343.5781 426.1953,343.5781 Q424.8515,343.5781 424.164,344.6484 Q423.4765,345.7188 423.4765,347.8125 Q423.4765,349.9063 424.164,350.9766 Q424.8515,352.0469 426.1953,352.0469 Q426.8203,352.0469 427.414,351.7734 Q428.0078,351.5 428.6328,350.9219 L428.6328,353.6406 Z "/><text fill="#000000" font-family="sans-serif" font-size="12" lengthAdjust="spacingAndGlyphs" textLength="134" x="440.264" y="352.1543">PokemonAppearance</text><line style="stroke: #A80036; stroke-width: 1.5;" x1="408.964" x2="578.964" y1="364" y2="364"/><ellipse cx="418.964" cy="375.9023" fill="none" rx="3" ry="3" style="stroke: #038048; stroke-width: 1.0;"/><text fill="#000000" font-family="sans-serif" font-size="11" lengthAdjust="spacingAndGlyphs" text-decoration="underline" textLength="67" x="427.964" y="378.2104">INTEGER ID,</text><ellipse cx="418.964" cy="388.707" fill="none" rx="3" ry="3" style="stroke: #038048; stroke-width: 1.0;"/><text fill="#000000" font-family="sans-serif" font-size="11" lengthAdjust="spacingAndGlyphs" textLength="100" x="427.964" y="391.0151">INTEGER BaseHP,</text><ellipse cx="418.964" cy="401.5117" fill="none" rx="3" ry="3" style="stroke: #038048; stroke-width: 1.0;"/><text fill="#000000" font-family="sans-serif" font-size="11" lengthAdjust="spacingAndGlyphs" textLength="121" x="427.964" y="403.8198">INTEGER BaseSpeed,</text><ellipse cx="418.964" cy="414.3164" fill="none" rx="3" ry="3" style="stroke: #038048; stroke-width: 1.0;"/><text fill="#000000" font-family="sans-serif" font-size="11" lengthAdjust="spacingAndGlyphs" textLength="119" x="427.964" y="416.6245">INTEGER BaseAttack,</text><ellipse cx="418.964" cy="427.1211" fill="none" rx="3" ry="3" style="stroke: #038048; stroke-width: 1.0;"/><text fill="#000000" font-family="sans-serif" font-size="11" lengthAdjust="spacingAndGlyphs" textLength="131" x="427.964" y="429.4292">INTEGER BaseDefence,</text><ellipse cx="418.964" cy="439.9258" fill="none" rx="3" ry="3" style="stroke: #038048; stroke-width: 1.0;"/><text fill="#000000" font-family="sans-serif" font-size="11" lengthAdjust="spacingAndGlyphs" textLength="134" x="427.964" y="442.2339">INTEGER BaseSpAttack,</text><ellipse cx="418.964" cy="452.7305" fill="none" rx="3" ry="3" style="stroke: #038048; stroke-width: 1.0;"/><text fill="#000000" font-family="sans-serif" font-size="11" lengthAdjust="spacingAndGlyphs" textLength="146" x="427.964" y="455.0386">INTEGER BaseSpDefence,</text><line style="stroke: #A80036; stroke-width: 1.0;" x1="408.964" x2="578.964" y1="461.6328" y2="461.6328"/><polygon fill="none" points="418.964,469.5352,414.964,475.5352,422.964,475.5352" style="stroke: #1963A0; stroke-width: 1.0;"/><text fill="#000000" font-family="sans-serif" font-size="11" lengthAdjust="spacingAndGlyphs" textLength="56" x="427.964" y="475.8433">Pokemon,</text><polygon fill="none" points="418.964,482.3398,414.964,488.3398,422.964,488.3398" style="stroke: #1963A0; stroke-width: 1.0;"/><text fill="#000000" font-family="sans-serif" font-size="11" lengthAdjust="spacingAndGlyphs" textLength="38" x="427.964" y="488.6479">Game,</text><!--class PokemonCanLearn--><rect fill="#FEFECE" filter="url(#f14vdyvh04jf8w)" height="86.4141" id="PokemonCanLearn" style="stroke: #A80036; stroke-width: 1.5;" width="149" x="705.464" y="560.5"/><ellipse cx="720.464" cy="576.5" fill="#ADD1B2" rx="11" ry="11" style="stroke: #A80036; stroke-width: 1.0;"/><path d="M723.4328,582.1406 Q722.8546,582.4375 722.214,582.5859 Q721.5734,582.7344 720.8703,582.7344 Q718.3703,582.7344 717.0499,581.0859 Q715.7296,579.4375 715.7296,576.3125 Q715.7296,573.1875 717.0499,571.5313 Q718.3703,569.875 720.8703,569.875 Q721.5734,569.875 722.2218,570.0313 Q722.8703,570.1875 723.4328,570.4844 L723.4328,573.2031 Q722.8078,572.625 722.214,572.3516 Q721.6203,572.0781 720.9953,572.0781 Q719.6515,572.0781 718.964,573.1484 Q718.2765,574.2188 718.2765,576.3125 Q718.2765,578.4063 718.964,579.4766 Q719.6515,580.5469 720.9953,580.5469 Q721.6203,580.5469 722.214,580.2734 Q722.8078,580 723.4328,579.4219 L723.4328,582.1406 Z "/><text fill="#000000" font-family="sans-serif" font-size="12" lengthAdjust="spacingAndGlyphs" textLength="117" x="734.464" y="580.6543">PokemonCanLearn</text><line style="stroke: #A80036; stroke-width: 1.5;" x1="706.464" x2="853.464" y1="592.5" y2="592.5"/><ellipse cx="716.464" cy="604.4023" fill="none" rx="3" ry="3" style="stroke: #038048; stroke-width: 1.0;"/><text fill="#000000" font-family="sans-serif" font-size="11" lengthAdjust="spacingAndGlyphs" textLength="96" x="725.464" y="606.7104">INTEGER AtLevel,</text><line style="stroke: #A80036; stroke-width: 1.0;" x1="706.464" x2="853.464" y1="613.3047" y2="613.3047"/><polygon fill="none" points="716.464,621.207,712.464,627.207,720.464,627.207" style="stroke: #1963A0; stroke-width: 1.0;"/><text fill="#000000" font-family="sans-serif" font-size="11" lengthAdjust="spacingAndGlyphs" textLength="71" x="725.464" y="627.5151">Appearance,</text><polygon fill="none" points="716.464,634.0117,712.464,640.0117,720.464,640.0117" style="stroke: #1963A0; stroke-width: 1.0;"/><text fill="#000000" font-family="sans-serif" font-size="11" lengthAdjust="spacingAndGlyphs" textLength="38" x="725.464" y="640.3198">Attack,</text><!--class Types--><rect fill="#FEFECE" filter="url(#f14vdyvh04jf8w)" height="60.8047" id="Types" style="stroke: #A80036; stroke-width: 1.5;" width="95" x="1049.46" y="172"/><ellipse cx="1076.61" cy="188" fill="#ADD1B2" rx="11" ry="11" style="stroke: #A80036; stroke-width: 1.0;"/><path d="M1079.5788,193.6406 Q1079.0006,193.9375 1078.36,194.0859 Q1077.7194,194.2344 1077.0163,194.2344 Q1074.5163,194.2344 1073.1959,192.5859 Q1071.8756,190.9375 1071.8756,187.8125 Q1071.8756,184.6875 1073.1959,183.0313 Q1074.5163,181.375 1077.0163,181.375 Q1077.7194,181.375 1078.3678,181.5313 Q1079.0163,181.6875 1079.5788,181.9844 L1079.5788,184.7031 Q1078.9538,184.125 1078.36,183.8516 Q1077.7663,183.5781 1077.1413,183.5781 Q1075.7975,183.5781 1075.11,184.6484 Q1074.4225,185.7188 1074.4225,187.8125 Q1074.4225,189.9063 1075.11,190.9766 Q1075.7975,192.0469 1077.1413,192.0469 Q1077.7663,192.0469 1078.36,191.7734 Q1078.9538,191.5 1079.5788,190.9219 L1079.5788,193.6406 Z "/><text fill="#000000" font-family="sans-serif" font-size="12" lengthAdjust="spacingAndGlyphs" textLength="36" x="1093.31" y="192.1543">Types</text><line style="stroke: #A80036; stroke-width: 1.5;" x1="1050.46" x2="1143.46" y1="204" y2="204"/><ellipse cx="1060.46" cy="215.9023" fill="none" rx="3" ry="3" style="stroke: #038048; stroke-width: 1.0;"/><text fill="#000000" font-family="sans-serif" font-size="11" lengthAdjust="spacingAndGlyphs" text-decoration="underline" textLength="69" x="1069.46" y="218.2104">TEXT Name,</text><line style="stroke: #A80036; stroke-width: 1.5;" x1="1050.46" x2="1143.46" y1="224.8047" y2="224.8047"/><!--class TypeMatchups--><rect fill="#FEFECE" filter="url(#f14vdyvh04jf8w)" height="86.4141" id="TypeMatchups" style="stroke: #A80036; stroke-width: 1.5;" width="209" x="841.464" y="370"/><ellipse cx="896.714" cy="386" fill="#ADD1B2" rx="11" ry="11" style="stroke: #A80036; stroke-width: 1.0;"/><path d="M899.6828,391.6406 Q899.1046,391.9375 898.464,392.0859 Q897.8234,392.2344 897.1203,392.2344 Q894.6203,392.2344 893.2999,390.5859 Q891.9796,388.9375 891.9796,385.8125 Q891.9796,382.6875 893.2999,381.0313 Q894.6203,379.375 897.1203,379.375 Q897.8234,379.375 898.4718,379.5313 Q899.1203,379.6875 899.6828,379.9844 L899.6828,382.7031 Q899.0578,382.125 898.464,381.8516 Q897.8703,381.5781 897.2453,381.5781 Q895.9015,381.5781 895.214,382.6484 Q894.5265,383.7188 894.5265,385.8125 Q894.5265,387.9063 895.214,388.9766 Q895.9015,390.0469 897.2453,390.0469 Q897.8703,390.0469 898.464,389.7734 Q899.0578,389.5 899.6828,388.9219 L899.6828,391.6406 Z "/><text fill="#000000" font-family="sans-serif" font-size="12" lengthAdjust="spacingAndGlyphs" textLength="90" x="917.214" y="390.1543">TypeMatchups</text><line style="stroke: #A80036; stroke-width: 1.5;" x1="842.464" x2="1049.464" y1="402" y2="402"/><ellipse cx="852.464" cy="413.9023" fill="none" rx="3" ry="3" style="stroke: #038048; stroke-width: 1.0;"/><text fill="#000000" font-family="sans-serif" font-size="11" lengthAdjust="spacingAndGlyphs" textLength="183" x="861.464" y="416.2104">INTEGER EffectivenessMultiplier,</text><line style="stroke: #A80036; stroke-width: 1.0;" x1="842.464" x2="1049.464" y1="422.8047" y2="422.8047"/><polygon fill="none" points="852.464,430.707,848.464,436.707,856.464,436.707" style="stroke: #1963A0; stroke-width: 1.0;"/><text fill="#000000" font-family="sans-serif" font-size="11" lengthAdjust="spacingAndGlyphs" textLength="26" x="861.464" y="437.0151">Self,</text><polygon fill="none" points="852.464,443.5117,848.464,449.5117,856.464,449.5117" style="stroke: #1963A0; stroke-width: 1.0;"/><text fill="#000000" font-family="sans-serif" font-size="11" lengthAdjust="spacingAndGlyphs" textLength="36" x="861.464" y="449.8198">Other,</text><!--class Attacks--><rect fill="#FEFECE" filter="url(#f14vdyvh04jf8w)" height="124.8281" id="Attacks" style="stroke: #A80036; stroke-width: 1.5;" width="149" x="1195.46" y="140"/><ellipse cx="1242.21" cy="156" fill="#ADD1B2" rx="11" ry="11" style="stroke: #A80036; stroke-width: 1.0;"/><path d="M1245.1788,161.6406 Q1244.6006,161.9375 1243.96,162.0859 Q1243.3194,162.2344 1242.6163,162.2344 Q1240.1163,162.2344 1238.7959,160.5859 Q1237.4756,158.9375 1237.4756,155.8125 Q1237.4756,152.6875 1238.7959,151.0313 Q1240.1163,149.375 1242.6163,149.375 Q1243.3194,149.375 1243.9678,149.5313 Q1244.6163,149.6875 1245.1788,149.9844 L1245.1788,152.7031 Q1244.5538,152.125 1243.96,151.8516 Q1243.3663,151.5781 1242.7413,151.5781 Q1241.3975,151.5781 1240.71,152.6484 Q1240.0225,153.7188 1240.0225,155.8125 Q1240.0225,157.9063 1240.71,158.9766 Q1241.3975,160.0469 1242.7413,160.0469 Q1243.3663,160.0469 1243.96,159.7734 Q1244.5538,159.5 1245.1788,158.9219 L1245.1788,161.6406 Z "/><text fill="#000000" font-family="sans-serif" font-size="12" lengthAdjust="spacingAndGlyphs" textLength="47" x="1262.71" y="160.1543">Attacks</text><line style="stroke: #A80036; stroke-width: 1.5;" x1="1196.46" x2="1343.46" y1="172" y2="172"/><ellipse cx="1206.46" cy="183.9023" fill="none" rx="3" ry="3" style="stroke: #038048; stroke-width: 1.0;"/><text fill="#000000" font-family="sans-serif" font-size="11" lengthAdjust="spacingAndGlyphs" text-decoration="underline" textLength="69" x="1215.46" y="186.2104">TEXT Name,</text><ellipse cx="1206.46" cy="196.707" fill="none" rx="3" ry="3" style="stroke: #038048; stroke-width: 1.0;"/><text fill="#000000" font-family="sans-serif" font-size="11" lengthAdjust="spacingAndGlyphs" textLength="96" x="1215.46" y="199.0151">INTEGER Priority,</text><ellipse cx="1206.46" cy="209.5117" fill="none" rx="3" ry="3" style="stroke: #038048; stroke-width: 1.0;"/><text fill="#000000" font-family="sans-serif" font-size="11" lengthAdjust="spacingAndGlyphs" textLength="106" x="1215.46" y="211.8198">INTEGER Accuracy,</text><ellipse cx="1206.46" cy="222.3164" fill="none" rx="3" ry="3" style="stroke: #038048; stroke-width: 1.0;"/><text fill="#000000" font-family="sans-serif" font-size="11" lengthAdjust="spacingAndGlyphs" textLength="123" x="1215.46" y="224.6245">INTEGER? TMNumber,</text><ellipse cx="1206.46" cy="235.1211" fill="none" rx="3" ry="3" style="stroke: #038048; stroke-width: 1.0;"/><text fill="#000000" font-family="sans-serif" font-size="11" lengthAdjust="spacingAndGlyphs" textLength="70" x="1215.46" y="237.4292">INTEGER PP,</text><ellipse cx="1206.46" cy="247.9258" fill="none" rx="3" ry="3" style="stroke: #038048; stroke-width: 1.0;"/><text fill="#000000" font-family="sans-serif" font-size="11" lengthAdjust="spacingAndGlyphs" textLength="91" x="1215.46" y="250.2339">INTEGER Power,</text><line style="stroke: #A80036; stroke-width: 1.5;" x1="1196.46" x2="1343.46" y1="256.8281" y2="256.8281"/><!--class AttackTypes--><rect fill="#FEFECE" filter="url(#f14vdyvh04jf8w)" height="73.6094" id="AttackTypes" style="stroke: #A80036; stroke-width: 1.5;" width="108" x="1101.96" y="376"/><ellipse cx="1116.96" cy="392" fill="#ADD1B2" rx="11" ry="11" style="stroke: #A80036; stroke-width: 1.0;"/><path d="M1119.9288,397.6406 Q1119.3506,397.9375 1118.71,398.0859 Q1118.0694,398.2344 1117.3663,398.2344 Q1114.8663,398.2344 1113.5459,396.5859 Q1112.2256,394.9375 1112.2256,391.8125 Q1112.2256,388.6875 1113.5459,387.0313 Q1114.8663,385.375 1117.3663,385.375 Q1118.0694,385.375 1118.7178,385.5313 Q1119.3663,385.6875 1119.9288,385.9844 L1119.9288,388.7031 Q1119.3038,388.125 1118.71,387.8516 Q1118.1163,387.5781 1117.4913,387.5781 Q1116.1475,387.5781 1115.46,388.6484 Q1114.7725,389.7188 1114.7725,391.8125 Q1114.7725,393.9063 1115.46,394.9766 Q1116.1475,396.0469 1117.4913,396.0469 Q1118.1163,396.0469 1118.71,395.7734 Q1119.3038,395.5 1119.9288,394.9219 L1119.9288,397.6406 Z "/><text fill="#000000" font-family="sans-serif" font-size="12" lengthAdjust="spacingAndGlyphs" textLength="76" x="1130.96" y="396.1543">AttackTypes</text><line style="stroke: #A80036; stroke-width: 1.5;" x1="1102.96" x2="1208.96" y1="408" y2="408"/><line style="stroke: #A80036; stroke-width: 1.0;" x1="1102.96" x2="1208.96" y1="416" y2="416"/><polygon fill="none" points="1112.96,423.9023,1108.96,429.9023,1116.96,429.9023" style="stroke: #1963A0; stroke-width: 1.0;"/><text fill="#000000" font-family="sans-serif" font-size="11" lengthAdjust="spacingAndGlyphs" textLength="38" x="1121.96" y="430.2104">Attack,</text><polygon fill="none" points="1112.96,436.707,1108.96,442.707,1116.96,442.707" style="stroke: #1963A0; stroke-width: 1.0;"/><text fill="#000000" font-family="sans-serif" font-size="11" lengthAdjust="spacingAndGlyphs" textLength="27" x="1121.96" y="443.0151">Type</text><!--class Media--><rect fill="#FEFECE" filter="url(#f14vdyvh04jf8w)" height="112.0234" id="Media" style="stroke: #A80036; stroke-width: 1.5;" width="113" x="38.4644" y="357"/><ellipse cx="73.2644" cy="373" fill="#ADD1B2" rx="11" ry="11" style="stroke: #A80036; stroke-width: 1.0;"/><path d="M76.2332,378.6406 Q75.655,378.9375 75.0144,379.0859 Q74.3738,379.2344 73.6707,379.2344 Q71.1707,379.2344 69.8503,377.5859 Q68.53,375.9375 68.53,372.8125 Q68.53,369.6875 69.8503,368.0313 Q71.1707,366.375 73.6707,366.375 Q74.3738,366.375 75.0222,366.5313 Q75.6707,366.6875 76.2332,366.9844 L76.2332,369.7031 Q75.6082,369.125 75.0144,368.8516 Q74.4207,368.5781 73.7957,368.5781 Q72.4519,368.5781 71.7644,369.6484 Q71.0769,370.7188 71.0769,372.8125 Q71.0769,374.9063 71.7644,375.9766 Q72.4519,377.0469 73.7957,377.0469 Q74.4207,377.0469 75.0144,376.7734 Q75.6082,376.5 76.2332,375.9219 L76.2332,378.6406 Z "/><text fill="#000000" font-family="sans-serif" font-size="12" lengthAdjust="spacingAndGlyphs" textLength="37" x="91.6644" y="377.1543">Media</text><line style="stroke: #A80036; stroke-width: 1.5;" x1="39.4644" x2="150.4644" y1="389" y2="389"/><ellipse cx="49.4644" cy="400.9023" fill="none" rx="3" ry="3" style="stroke: #038048; stroke-width: 1.0;"/><text fill="#000000" font-family="sans-serif" font-size="11" lengthAdjust="spacingAndGlyphs" text-decoration="underline" textLength="67" x="58.4644" y="403.2104">INTEGER ID,</text><ellipse cx="49.4644" cy="413.707" fill="none" rx="3" ry="3" style="stroke: #038048; stroke-width: 1.0;"/><text fill="#000000" font-family="sans-serif" font-size="11" lengthAdjust="spacingAndGlyphs" textLength="87" x="58.4644" y="416.0151">TEXT Filename,</text><ellipse cx="49.4644" cy="426.5117" fill="none" rx="3" ry="3" style="stroke: #038048; stroke-width: 1.0;"/><text fill="#000000" font-family="sans-serif" font-size="11" lengthAdjust="spacingAndGlyphs" textLength="65" x="58.4644" y="428.8198">BLOB Data,</text><line style="stroke: #A80036; stroke-width: 1.0;" x1="39.4644" x2="150.4644" y1="435.4141" y2="435.4141"/><polygon fill="none" points="49.4644,443.3164,45.4644,449.3164,53.4644,449.3164" style="stroke: #1963A0; stroke-width: 1.0;"/><text fill="#000000" font-family="sans-serif" font-size="11" lengthAdjust="spacingAndGlyphs" textLength="56" x="58.4644" y="449.6245">Pokemon,</text><polygon fill="none" points="49.4644,456.1211,45.4644,462.1211,53.4644,462.1211" style="stroke: #1963A0; stroke-width: 1.0;"/><text fill="#000000" font-family="sans-serif" font-size="11" lengthAdjust="spacingAndGlyphs" textLength="59" x="58.4644" y="462.4292">MIMEType,</text><!--class MIMETypes--><rect fill="#FEFECE" filter="url(#f14vdyvh04jf8w)" height="86.4141" id="MIMETypes" style="stroke: #A80036; stroke-width: 1.5;" width="139" x="25.4644" y="560"/><ellipse cx="58.4644" cy="576" fill="#ADD1B2" rx="11" ry="11" style="stroke: #A80036; stroke-width: 1.0;"/><path d="M61.4332,581.6406 Q60.855,581.9375 60.2144,582.0859 Q59.5738,582.2344 58.8707,582.2344 Q56.3707,582.2344 55.0503,580.5859 Q53.73,578.9375 53.73,575.8125 Q53.73,572.6875 55.0503,571.0313 Q56.3707,569.375 58.8707,569.375 Q59.5738,569.375 60.2222,569.5313 Q60.8707,569.6875 61.4332,569.9844 L61.4332,572.7031 Q60.8082,572.125 60.2144,571.8516 Q59.6207,571.5781 58.9957,571.5781 Q57.6519,571.5781 56.9644,572.6484 Q56.2769,573.7188 56.2769,575.8125 Q56.2769,577.9063 56.9644,578.9766 Q57.6519,580.0469 58.9957,580.0469 Q59.6207,580.0469 60.2144,579.7734 Q60.8082,579.5 61.4332,578.9219 L61.4332,581.6406 Z "/><text fill="#000000" font-family="sans-serif" font-size="12" lengthAdjust="spacingAndGlyphs" textLength="67" x="76.4644" y="580.1543">MIMETypes</text><line style="stroke: #A80036; stroke-width: 1.5;" x1="26.4644" x2="163.4644" y1="592" y2="592"/><ellipse cx="36.4644" cy="603.9023" fill="none" rx="3" ry="3" style="stroke: #038048; stroke-width: 1.0;"/><text fill="#000000" font-family="sans-serif" font-size="11" lengthAdjust="spacingAndGlyphs" text-decoration="underline" textLength="98" x="45.4644" y="606.2104">TEXT MIMEString,</text><ellipse cx="36.4644" cy="616.707" fill="none" rx="3" ry="3" style="stroke: #038048; stroke-width: 1.0;"/><text fill="#000000" font-family="sans-serif" font-size="11" lengthAdjust="spacingAndGlyphs" textLength="113" x="45.4644" y="619.0151">TEXT FriendlyName,</text><ellipse cx="36.4644" cy="629.5117" fill="none" rx="3" ry="3" style="stroke: #038048; stroke-width: 1.0;"/><text fill="#000000" font-family="sans-serif" font-size="11" lengthAdjust="spacingAndGlyphs" textLength="91" x="45.4644" y="631.8198">TEXT Extension,</text><line style="stroke: #A80036; stroke-width: 1.5;" x1="26.4644" x2="163.4644" y1="638.4141" y2="638.4141"/><!--class Games--><rect fill="#FEFECE" filter="url(#f14vdyvh04jf8w)" height="86.4141" id="Games" style="stroke: #A80036; stroke-width: 1.5;" width="134" x="423.964" y="160"/><ellipse cx="465.514" cy="176" fill="#ADD1B2" rx="11" ry="11" style="stroke: #A80036; stroke-width: 1.0;"/><path d="M468.4828,181.6406 Q467.9046,181.9375 467.264,182.0859 Q466.6234,182.2344 465.9203,182.2344 Q463.4203,182.2344 462.0999,180.5859 Q460.7796,178.9375 460.7796,175.8125 Q460.7796,172.6875 462.0999,171.0313 Q463.4203,169.375 465.9203,169.375 Q466.6234,169.375 467.2718,169.5313 Q467.9203,169.6875 468.4828,169.9844 L468.4828,172.7031 Q467.8578,172.125 467.264,171.8516 Q466.6703,171.5781 466.0453,171.5781 Q464.7015,171.5781 464.014,172.6484 Q463.3265,173.7188 463.3265,175.8125 Q463.3265,177.9063 464.014,178.9766 Q464.7015,180.0469 466.0453,180.0469 Q466.6703,180.0469 467.264,179.7734 Q467.8578,179.5 468.4828,178.9219 L468.4828,181.6406 Z "/><text fill="#000000" font-family="sans-serif" font-size="12" lengthAdjust="spacingAndGlyphs" textLength="43" x="485.414" y="180.1543">Games</text><line style="stroke: #A80036; stroke-width: 1.5;" x1="424.964" x2="556.964" y1="192" y2="192"/><ellipse cx="434.964" cy="203.9023" fill="none" rx="3" ry="3" style="stroke: #038048; stroke-width: 1.0;"/><text fill="#000000" font-family="sans-serif" font-size="11" lengthAdjust="spacingAndGlyphs" text-decoration="underline" textLength="69" x="443.964" y="206.2104">TEXT Name,</text><ellipse cx="434.964" cy="216.707" fill="none" rx="3" ry="3" style="stroke: #038048; stroke-width: 1.0;"/><text fill="#000000" font-family="sans-serif" font-size="11" lengthAdjust="spacingAndGlyphs" textLength="108" x="443.964" y="219.0151">DATE ReleaseDate,</text><line style="stroke: #A80036; stroke-width: 1.0;" x1="424.964" x2="556.964" y1="225.6094" y2="225.6094"/><polygon fill="none" points="434.964,233.5117,430.964,239.5117,438.964,239.5117" style="stroke: #1963A0; stroke-width: 1.0;"/><text fill="#000000" font-family="sans-serif" font-size="11" lengthAdjust="spacingAndGlyphs" textLength="48" x="443.964" y="239.8198">Platform</text><!--class Platforms--><rect fill="#FEFECE" filter="url(#f14vdyvh04jf8w)" height="60.8047" id="Platforms" style="stroke: #A80036; stroke-width: 1.5;" width="95" x="442.464" y="12"/><ellipse cx="459.264" cy="28" fill="#ADD1B2" rx="11" ry="11" style="stroke: #A80036; stroke-width: 1.0;"/><path d="M462.2328,33.6406 Q461.6546,33.9375 461.014,34.0859 Q460.3734,34.2344 459.6703,34.2344 Q457.1703,34.2344 455.8499,32.5859 Q454.5296,30.9375 454.5296,27.8125 Q454.5296,24.6875 455.8499,23.0313 Q457.1703,21.375 459.6703,21.375 Q460.3734,21.375 461.0218,21.5313 Q461.6703,21.6875 462.2328,21.9844 L462.2328,24.7031 Q461.6078,24.125 461.014,23.8516 Q460.4203,23.5781 459.7953,23.5781 Q458.4515,23.5781 457.764,24.6484 Q457.0765,25.7188 457.0765,27.8125 Q457.0765,29.9063 457.764,30.9766 Q458.4515,32.0469 459.7953,32.0469 Q460.4203,32.0469 461.014,31.7734 Q461.6078,31.5 462.2328,30.9219 L462.2328,33.6406 Z "/><text fill="#000000" font-family="sans-serif" font-size="12" lengthAdjust="spacingAndGlyphs" textLength="59" x="473.664" y="32.1543">Platforms</text><line style="stroke: #A80036; stroke-width: 1.5;" x1="443.464" x2="536.464" y1="44" y2="44"/><ellipse cx="453.464" cy="55.9023" fill="none" rx="3" ry="3" style="stroke: #038048; stroke-width: 1.0;"/><text fill="#000000" font-family="sans-serif" font-size="11" lengthAdjust="spacingAndGlyphs" text-decoration="underline" textLength="69" x="462.464" y="58.2104">TEXT Name,</text><line style="stroke: #A80036; stroke-width: 1.5;" x1="443.464" x2="536.464" y1="64.8047" y2="64.8047"/><path d="M601.464,174.5 L601.464,229.8984 L1006.464,229.8984 L1006.464,184.5 L996.464,174.5 L601.464,174.5 " fill="#FBFB77" filter="url(#f14vdyvh04jf8w)" style="stroke: #A80036; stroke-width: 1.0;"/><path d="M996.464,174.5 L996.464,184.5 L1006.464,184.5 L996.464,174.5 " fill="#FBFB77" style="stroke: #A80036; stroke-width: 1.0;"/><text fill="#000000" font-family="sans-serif" font-size="13" lengthAdjust="spacingAndGlyphs" textLength="318" x="607.464" y="191.5669">Since these tables essentially represent matricies</text><text fill="#000000" font-family="sans-serif" font-size="13" lengthAdjust="spacingAndGlyphs" textLength="322" x="607.464" y="206.6997">it doesn't really make sense to have a primary key</text><text fill="#000000" font-family="sans-serif" font-size="13" lengthAdjust="spacingAndGlyphs" textLength="384" x="607.464" y="221.8325">as their only value is in reference of one of their foriegn keys</text><!--link MatrixNote to PokemonCanLearn--><path d="M802.352,229.765 C798.311,296.864 787.714,472.829 782.686,556.3073 " fill="none" id="MatrixNote-PokemonCanLearn" style="stroke: #A80036; stroke-width: 1.0; stroke-dasharray: 7.0,7.0;"/><!--link MatrixNote to AttackTypes--><path d="M881.043,229.533 C937.865,251.14 1015.47,285.059 1075.96,328 C1093.43,340.395 1110.27,356.929 1123.96,371.976 " fill="none" id="MatrixNote-AttackTypes" style="stroke: #A80036; stroke-width: 1.0; stroke-dasharray: 7.0,7.0;"/><!--link MatrixNote to TypeMatchups--><path d="M822.238,229.767 C845.683,264.109 886.702,324.194 915.046,365.712 " fill="none" id="MatrixNote-TypeMatchups" style="stroke: #A80036; stroke-width: 1.0; stroke-dasharray: 7.0,7.0;"/><!--link MatrixNote to PokemonEvolutions--><path d="M713.943,229.548 C590.57,265.947 383.86,327 381.964,328 C359.955,339.613 338.197,356.384 320.465,371.815 " fill="none" id="MatrixNote-PokemonEvolutions" style="stroke: #A80036; stroke-width: 1.0; stroke-dasharray: 7.0,7.0;"/><!--link Platforms to Games--><path d="M538.964,54 C548.752,54 542.675,67.42 537.964,76 C508.172,130.256 452.868,101.266 423.964,156 C410.431,181.628 394.598,218.915 410.019,230.46 " fill="none" id="Platforms-Games" style="stroke: #A80036; stroke-width: 1.0;"/><polygon fill="#A80036" points="422.964,234,418.2313,228.5592,411.3888,230.8352,416.1215,236.276,422.964,234" style="stroke: #A80036; stroke-width: 1.0;"/><!--link Pokemon to Media--><path d="M183.964,195 C133.013,195 195.503,402.096 164.935,439.309 " fill="none" id="Pokemon-Media" style="stroke: #A80036; stroke-width: 1.0;"/><polygon fill="#A80036" points="152.964,445,160.1004,446.0356,163.8011,439.8465,156.6647,438.8109,152.964,445" style="stroke: #A80036; stroke-width: 1.0;"/><!--link Pokemon to PokemonAppearance--><path d="M374.964,195 C431.441,195 359.352,426.733 394.735,464.752 " fill="none" id="Pokemon-PokemonAppearance" style="stroke: #A80036; stroke-width: 1.0;"/><polygon fill="#A80036" points="406.964,470,403.0272,463.9584,395.9361,465.2687,399.8729,471.3103,406.964,470" style="stroke: #A80036; stroke-width: 1.0;"/><!--link Pokemon to PokemonEvolutions--><path d="M374.964,195 C401.635,195 386.603,231.515 373.964,255 C330.325,336.09 246.679,290.95 202.964,372 C194.507,387.68 184.83,409.831 190.216,420.21 " fill="none" id="Pokemon-PokemonEvolutions" style="stroke: #A80036; stroke-width: 1.0;"/><polygon fill="#A80036" points="201.964,426,198.3504,419.7597,191.2002,420.6952,194.8138,426.9356,201.964,426" style="stroke: #A80036; stroke-width: 1.0;"/><!--link Pokemon to PokemonEvolutions--><path d="M374.964,195 C401.635,195 386.603,231.515 373.964,255 C330.325,336.09 246.542,290.877 202.964,372 C191.793,392.796 178.957,422.86 189.655,433.81 " fill="none" id="Pokemon-PokemonEvolutions-1" style="stroke: #A80036; stroke-width: 1.0;"/><polygon fill="#A80036" points="201.964,438,197.5727,432.2802,190.6039,434.1337,194.9952,439.8536,201.964,438" style="stroke: #A80036; stroke-width: 1.0;"/><!--link Games to PokemonAppearance--><path d="M558.964,202 C579.414,202 568.675,230.58 557.964,248 C518.39,312.362 447.048,263.338 407.964,328 C392.751,353.17 377.673,448.812 395.453,475.214 " fill="none" id="Games-PokemonAppearance" style="stroke: #A80036; stroke-width: 1.0;"/><polygon fill="#A80036" points="406.964,482,403.8265,475.5072,396.6265,475.9061,399.7639,482.3989,406.964,482" style="stroke: #A80036; stroke-width: 1.0;"/><!--link PokemonAppearance to PokemonCanLearn--><path d="M580.964,374 C699.694,374 590.535,603.9317 691.906,621.4461 " fill="none" id="PokemonAppearance-PokemonCanLearn" style="stroke: #A80036; stroke-width: 1.0;"/><polygon fill="#A80036" points="704.964,622.5,699.3057,618.0297,693.003,621.5334,698.6613,626.0037,704.964,622.5" style="stroke: #A80036; stroke-width: 1.0;"/><!--link Attacks to PokemonCanLearn--><path d="M1345.96,182 C1433.74,182 1416.84,331.774 1235.96,496 C1106.19,613.8238 1039.11,633.5561 869.187,634.4658 " fill="none" id="Attacks-PokemonCanLearn" style="stroke: #A80036; stroke-width: 1.0;"/><polygon fill="#A80036" points="855.964,634.5,861.9741,638.4848,867.964,634.4697,861.9539,630.4848,855.964,634.5" style="stroke: #A80036; stroke-width: 1.0;"/><!--link Attacks to AttackTypes--><path d="M1194.96,182 C1146.04,182 1242.24,379.812 1222.23,419.219 " fill="none" id="Attacks-AttackTypes" style="stroke: #A80036; stroke-width: 1.0;"/><polygon fill="#A80036" points="1210.96,426,1218.1633,426.3346,1221.2427,419.814,1214.0394,419.4795,1210.96,426" style="stroke: #A80036; stroke-width: 1.0;"/><!--link Types to AttackTypes--><path d="M1145.96,214 C1155.75,214 1146.68,226.363 1144.96,236 C1133.88,298.416 1112.11,309.423 1101.96,372 C1098.3,394.624 1081.84,422.181 1088.81,433.155 " fill="none" id="Types-AttackTypes" style="stroke: #A80036; stroke-width: 1.0;"/><polygon fill="#A80036" points="1100.96,438,1096.8679,432.0624,1089.8132,433.556,1093.9053,439.4936,1100.96,438" style="stroke: #A80036; stroke-width: 1.0;"/><!--link Types to TypeMatchups--><path d="M1048.96,214 C1005.814,214 1080.34,386.92 1062.93,424.747 " fill="none" id="Types-TypeMatchups" style="stroke: #A80036; stroke-width: 1.0;"/><polygon fill="#A80036" points="1051.96,432,1059.1711,432.0259,1061.9685,425.3796,1054.7574,425.3536,1051.96,432" style="stroke: #A80036; stroke-width: 1.0;"/><!--link Types to TypeMatchups--><path d="M1048.96,214 C1003.14,214 1082.97,398.847 1063.16,437.117 " fill="none" id="Types-TypeMatchups-1" style="stroke: #A80036; stroke-width: 1.0;"/><polygon fill="#A80036" points="1051.96,444,1059.1661,444.2691,1062.1861,437.7208,1054.98,437.4517,1051.96,444" style="stroke: #A80036; stroke-width: 1.0;"/><!--link Media to MIMETypes--><path d="M37.9644,457 C5.5022,457 -7.4978,602.5 24.9644,602.5 " fill="none" id="Media-MIMETypes" style="stroke: #A80036; stroke-width: 1.0;"/><!--
@startuml PokemonDB

class Pokemon {
    {static}+INTEGER PokedexID,
    +TEXT Name,
    +INTEGER GenderDistribution,
    +BOOLEAN Legendary,
}
class PokemonEvolutions{
    - - -
    ~Base,
    ~Evolution,
}
class PokemonAppearance{
    {static}+INTEGER ID,
    +INTEGER BaseHP,
    +INTEGER BaseSpeed,
    +INTEGER BaseAttack,
    +INTEGER BaseDefence,
    +INTEGER BaseSpAttack,
    +INTEGER BaseSpDefence,
    - - -
    ~Pokemon,
    ~Game,
}
class PokemonCanLearn{
    +INTEGER AtLevel,
    - - -
    ~Appearance,
    ~Attack,
}
class Types{
    {static}+TEXT Name,
}
class TypeMatchups{
    +INTEGER EffectivenessMultiplier,
    - - -
    ~Self,
    ~Other,
}
class Attacks{
    {static}+TEXT Name,
    +INTEGER Priority,
    +INTEGER Accuracy,
    +INTEGER? TMNumber,
    +INTEGER PP,
    +INTEGER Power,
}
class AttackTypes{
    - - -
    ~Attack,
    ~Type
}
class Media{
    {static}+INTEGER ID,
    +TEXT Filename,
    +BLOB Data,
    - - -
    ~Pokemon,
    ~MIMEType,
}
class MIMETypes{
    {static}+TEXT MIMEString,
    +TEXT FriendlyName,
    +TEXT Extension,
}
class Games{
    {static}+TEXT Name,
    +DATE ReleaseDate,
    - - -
    ~Platform
}
class Platforms{
    {static}+TEXT Name,
}

note "Since these tables essentially represent matricies\nit doesn't really make sense to have a primary key\nas their only value is in reference of one of their foriegn keys" as MatrixNote
MatrixNote..PokemonCanLearn
MatrixNote..AttackTypes
MatrixNote..TypeMatchups
MatrixNote..PokemonEvolutions

Platforms::Name - -* Games::Platform
Pokemon::PokedexID - -* Media::Pokemon
Pokemon::PokedexID - -* PokemonAppearance::Pokemon
Pokemon::PokedexID - -* PokemonEvolutions::Base
Pokemon::PokedexID - -* PokemonEvolutions::Evolution
Games::Name - -* PokemonAppearance::Game
PokemonAppearance::ID - -* PokemonCanLearn::Appearance
Attacks::Name - -* PokemonCanLearn::Attack
Attacks::Name - -* AttackTypes::Attack
Types::Name - -* AttackTypes::Type
Types::Name - -* TypeMatchups::Self
Types::Name - -* TypeMatchups::Other
Media::MIMEType - - MIMETypes::MIMEString
@enduml

PlantUML version 1.2019.05(Sat Apr 20 16:45:36 UTC 2019)
(GPL source distribution)
Java Runtime: OpenJDK Runtime Environment
JVM: OpenJDK 64-Bit Server VM
Java Version: 1.8.0_191-8u191-b12-2ubuntu0.16.04.1-b12
Operating System: Linux
OS Version: 4.15.0-1028-gcp
Default Encoding: UTF-8
Language: en
Country: US
--></g></svg>