<?xml version="1.0" encoding="UTF-8" standalone="no"?><svg xmlns="http://www.w3.org/2000/svg" xmlns:xlink="http://www.w3.org/1999/xlink" contentScriptType="application/ecmascript" contentStyleType="text/css" height="618px" preserveAspectRatio="none" style="width:953px;height:618px;" version="1.1" viewBox="0 0 953 618" width="953px" zoomAndPan="magnify"><defs><filter height="300%" id="f1rzgwhwdwy07d" width="300%" x="-1" y="-1"><feGaussianBlur result="blurOut" stdDeviation="2.0"/><feColorMatrix in="blurOut" result="blurOut2" type="matrix" values="0 0 0 0 0 0 0 0 0 0 0 0 0 0 0 0 0 0 .4 0"/><feOffset dx="4.0" dy="4.0" in="blurOut2" result="blurOut3"/><feBlend in="SourceGraphic" in2="blurOut3" mode="normal"/></filter></defs><g><!--class Pokemon--><rect fill="#FEFECE" filter="url(#f1rzgwhwdwy07d)" height="60.9551" id="Pokemon" style="stroke: #A80036; stroke-width: 1.5;" width="89" x="127.5" y="152"/><ellipse cx="144.3" cy="168" fill="#ADD1B2" rx="11" ry="11" style="stroke: #A80036; stroke-width: 1.0;"/><path d="M146.7731,174.1431 Q146.1921,174.4419 145.5529,174.5913 Q144.9138,174.7407 144.2082,174.7407 Q141.7014,174.7407 140.3815,173.0889 Q139.0617,171.437 139.0617,168.3159 Q139.0617,165.1865 140.3815,163.5347 Q141.7014,161.8828 144.2082,161.8828 Q144.9138,161.8828 145.5612,162.0322 Q146.2087,162.1816 146.7731,162.4805 L146.7731,165.2031 Q146.1423,164.6221 145.5488,164.3523 Q144.9553,164.0825 144.3244,164.0825 Q142.9797,164.0825 142.2949,165.1492 Q141.6101,166.2158 141.6101,168.3159 Q141.6101,170.4077 142.2949,171.4744 Q142.9797,172.541 144.3244,172.541 Q144.9553,172.541 145.5488,172.2712 Q146.1423,172.0015 146.7731,171.4204 Z "/><text fill="#000000" font-family="sans-serif" font-size="12" lengthAdjust="spacingAndGlyphs" textLength="53" x="158.7" y="172.5352">Pokemon</text><line style="stroke: #A80036; stroke-width: 1.5;" x1="128.5" x2="215.5" y1="184" y2="184"/><ellipse cx="138.5" cy="195.9775" fill="none" rx="3" ry="3" style="stroke: #038048; stroke-width: 1.0;"/><text fill="#000000" font-family="sans-serif" font-size="11" lengthAdjust="spacingAndGlyphs" textLength="63" x="147.5" y="198.6348">TEXT Name,</text><line style="stroke: #A80036; stroke-width: 1.5;" x1="128.5" x2="215.5" y1="204.9551" y2="204.9551"/><!--class PokemonEvolutions--><rect fill="#FEFECE" filter="url(#f1rzgwhwdwy07d)" height="73.9102" id="PokemonEvolutions" style="stroke: #A80036; stroke-width: 1.5;" width="142" x="14" y="336.5"/><ellipse cx="29" cy="352.5" fill="#ADD1B2" rx="11" ry="11" style="stroke: #A80036; stroke-width: 1.0;"/><path d="M31.4731,358.6431 Q30.8921,358.9419 30.2529,359.0913 Q29.6138,359.2407 28.9082,359.2407 Q26.4014,359.2407 25.0815,357.5889 Q23.7617,355.937 23.7617,352.8159 Q23.7617,349.6865 25.0815,348.0347 Q26.4014,346.3828 28.9082,346.3828 Q29.6138,346.3828 30.2612,346.5322 Q30.9087,346.6816 31.4731,346.9805 L31.4731,349.7031 Q30.8423,349.1221 30.2488,348.8523 Q29.6553,348.5825 29.0244,348.5825 Q27.6797,348.5825 26.9949,349.6492 Q26.3101,350.7158 26.3101,352.8159 Q26.3101,354.9077 26.9949,355.9744 Q27.6797,357.041 29.0244,357.041 Q29.6553,357.041 30.2488,356.7712 Q30.8423,356.5015 31.4731,355.9204 Z "/><text fill="#000000" font-family="sans-serif" font-size="12" lengthAdjust="spacingAndGlyphs" textLength="110" x="43" y="357.0352">PokemonEvolutions</text><line style="stroke: #A80036; stroke-width: 1.5;" x1="15" x2="155" y1="368.5" y2="368.5"/><line style="stroke: #A80036; stroke-width: 1.0;" x1="15" x2="155" y1="376.5" y2="376.5"/><polygon fill="none" points="25,384.4775,21,390.4775,29,390.4775" style="stroke: #1963A0; stroke-width: 1.0;"/><text fill="#000000" font-family="sans-serif" font-size="11" lengthAdjust="spacingAndGlyphs" textLength="27" x="34" y="391.1348">Base,</text><polygon fill="none" points="25,397.4326,21,403.4326,29,403.4326" style="stroke: #1963A0; stroke-width: 1.0;"/><text fill="#000000" font-family="sans-serif" font-size="11" lengthAdjust="spacingAndGlyphs" textLength="53" x="34" y="404.0898">Evolution,</text><!--class PokemonAppearance--><rect fill="#FEFECE" filter="url(#f1rzgwhwdwy07d)" height="164.5957" id="PokemonAppearance" style="stroke: #A80036; stroke-width: 1.5;" width="157" x="364.5" y="292"/><ellipse cx="380.4" cy="308" fill="#ADD1B2" rx="11" ry="11" style="stroke: #A80036; stroke-width: 1.0;"/><path d="M382.8731,314.1431 Q382.2921,314.4419 381.6529,314.5913 Q381.0138,314.7407 380.3082,314.7407 Q377.8014,314.7407 376.4815,313.0889 Q375.1617,311.437 375.1617,308.3159 Q375.1617,305.1865 376.4815,303.5347 Q377.8014,301.8828 380.3082,301.8828 Q381.0138,301.8828 381.6612,302.0322 Q382.3087,302.1816 382.8731,302.4805 L382.8731,305.2031 Q382.2423,304.6221 381.6488,304.3523 Q381.0553,304.0825 380.4244,304.0825 Q379.0797,304.0825 378.3949,305.1492 Q377.7101,306.2158 377.7101,308.3159 Q377.7101,310.4077 378.3949,311.4744 Q379.0797,312.541 380.4244,312.541 Q381.0553,312.541 381.6488,312.2712 Q382.2423,312.0015 382.8731,311.4204 Z "/><text fill="#000000" font-family="sans-serif" font-size="12" lengthAdjust="spacingAndGlyphs" textLength="123" x="394.6" y="312.5352">PokemonAppearance</text><line style="stroke: #A80036; stroke-width: 1.5;" x1="365.5" x2="520.5" y1="324" y2="324"/><ellipse cx="375.5" cy="335.9775" fill="none" rx="3" ry="3" style="stroke: #038048; stroke-width: 1.0;"/><text fill="#000000" font-family="sans-serif" font-size="11" lengthAdjust="spacingAndGlyphs" textLength="62" x="384.5" y="338.6348">INTEGER ID,</text><ellipse cx="375.5" cy="348.9326" fill="none" rx="3" ry="3" style="stroke: #038048; stroke-width: 1.0;"/><text fill="#000000" font-family="sans-serif" font-size="11" lengthAdjust="spacingAndGlyphs" textLength="89" x="384.5" y="351.5898">INTEGER BaseHP,</text><ellipse cx="375.5" cy="361.8877" fill="none" rx="3" ry="3" style="stroke: #038048; stroke-width: 1.0;"/><text fill="#000000" font-family="sans-serif" font-size="11" lengthAdjust="spacingAndGlyphs" textLength="107" x="384.5" y="364.5449">INTEGER BaseSpeed,</text><ellipse cx="375.5" cy="374.8428" fill="none" rx="3" ry="3" style="stroke: #038048; stroke-width: 1.0;"/><text fill="#000000" font-family="sans-serif" font-size="11" lengthAdjust="spacingAndGlyphs" textLength="109" x="384.5" y="377.5">INTEGER BaseAttack,</text><ellipse cx="375.5" cy="387.7979" fill="none" rx="3" ry="3" style="stroke: #038048; stroke-width: 1.0;"/><text fill="#000000" font-family="sans-serif" font-size="11" lengthAdjust="spacingAndGlyphs" textLength="118" x="384.5" y="390.4551">INTEGER BaseDefence,</text><ellipse cx="375.5" cy="400.7529" fill="none" rx="3" ry="3" style="stroke: #038048; stroke-width: 1.0;"/><text fill="#000000" font-family="sans-serif" font-size="11" lengthAdjust="spacingAndGlyphs" textLength="122" x="384.5" y="403.4102">INTEGER BaseSpAttack,</text><ellipse cx="375.5" cy="413.708" fill="none" rx="3" ry="3" style="stroke: #038048; stroke-width: 1.0;"/><text fill="#000000" font-family="sans-serif" font-size="11" lengthAdjust="spacingAndGlyphs" textLength="131" x="384.5" y="416.3652">INTEGER BaseSpDefence,</text><line style="stroke: #A80036; stroke-width: 1.0;" x1="365.5" x2="520.5" y1="422.6855" y2="422.6855"/><polygon fill="none" points="375.5,430.6631,371.5,436.6631,379.5,436.6631" style="stroke: #1963A0; stroke-width: 1.0;"/><text fill="#000000" font-family="sans-serif" font-size="11" lengthAdjust="spacingAndGlyphs" textLength="52" x="384.5" y="437.3203">Pokemon,</text><polygon fill="none" points="375.5,443.6182,371.5,449.6182,379.5,449.6182" style="stroke: #1963A0; stroke-width: 1.0;"/><text fill="#000000" font-family="sans-serif" font-size="11" lengthAdjust="spacingAndGlyphs" textLength="33" x="384.5" y="450.2754">Game,</text><!--class PokemonCanLearn--><rect fill="#FEFECE" filter="url(#f1rzgwhwdwy07d)" height="86.8652" id="PokemonCanLearn" style="stroke: #A80036; stroke-width: 1.5;" width="139" x="389.5" y="521"/><ellipse cx="404.5" cy="537" fill="#ADD1B2" rx="11" ry="11" style="stroke: #A80036; stroke-width: 1.0;"/><path d="M406.9731,543.1431 Q406.3921,543.4419 405.7529,543.5913 Q405.1138,543.7407 404.4082,543.7407 Q401.9014,543.7407 400.5815,542.0889 Q399.2617,540.437 399.2617,537.3159 Q399.2617,534.1865 400.5815,532.5347 Q401.9014,530.8828 404.4082,530.8828 Q405.1138,530.8828 405.7612,531.0322 Q406.4087,531.1816 406.9731,531.4805 L406.9731,534.2031 Q406.3423,533.6221 405.7488,533.3523 Q405.1553,533.0825 404.5244,533.0825 Q403.1797,533.0825 402.4949,534.1492 Q401.8101,535.2158 401.8101,537.3159 Q401.8101,539.4077 402.4949,540.4744 Q403.1797,541.541 404.5244,541.541 Q405.1553,541.541 405.7488,541.2712 Q406.3423,541.0015 406.9731,540.4204 Z "/><text fill="#000000" font-family="sans-serif" font-size="12" lengthAdjust="spacingAndGlyphs" textLength="107" x="418.5" y="541.5352">PokemonCanLearn</text><line style="stroke: #A80036; stroke-width: 1.5;" x1="390.5" x2="527.5" y1="553" y2="553"/><ellipse cx="400.5" cy="564.9775" fill="none" rx="3" ry="3" style="stroke: #038048; stroke-width: 1.0;"/><text fill="#000000" font-family="sans-serif" font-size="11" lengthAdjust="spacingAndGlyphs" textLength="90" x="409.5" y="567.6348">INTEGER AtLevel,</text><line style="stroke: #A80036; stroke-width: 1.0;" x1="390.5" x2="527.5" y1="573.9551" y2="573.9551"/><polygon fill="none" points="400.5,581.9326,396.5,587.9326,404.5,587.9326" style="stroke: #1963A0; stroke-width: 1.0;"/><text fill="#000000" font-family="sans-serif" font-size="11" lengthAdjust="spacingAndGlyphs" textLength="67" x="409.5" y="588.5898">Appearance,</text><polygon fill="none" points="400.5,594.8877,396.5,600.8877,404.5,600.8877" style="stroke: #1963A0; stroke-width: 1.0;"/><text fill="#000000" font-family="sans-serif" font-size="11" lengthAdjust="spacingAndGlyphs" textLength="37" x="409.5" y="601.5449">Attack,</text><!--class Types--><rect fill="#FEFECE" filter="url(#f1rzgwhwdwy07d)" height="60.9551" id="Types" style="stroke: #A80036; stroke-width: 1.5;" width="89" x="799.5" y="342.5"/><ellipse cx="824.4" cy="358.5" fill="#ADD1B2" rx="11" ry="11" style="stroke: #A80036; stroke-width: 1.0;"/><path d="M826.8731,364.6431 Q826.2921,364.9419 825.6529,365.0913 Q825.0138,365.2407 824.3082,365.2407 Q821.8014,365.2407 820.4815,363.5889 Q819.1617,361.937 819.1617,358.8159 Q819.1617,355.6865 820.4815,354.0347 Q821.8014,352.3828 824.3082,352.3828 Q825.0138,352.3828 825.6612,352.5322 Q826.3087,352.6816 826.8731,352.9805 L826.8731,355.7031 Q826.2423,355.1221 825.6488,354.8523 Q825.0553,354.5825 824.4244,354.5825 Q823.0797,354.5825 822.3949,355.6492 Q821.7101,356.7158 821.7101,358.8159 Q821.7101,360.9077 822.3949,361.9744 Q823.0797,363.041 824.4244,363.041 Q825.0553,363.041 825.6488,362.7712 Q826.2423,362.5015 826.8731,361.9204 Z "/><text fill="#000000" font-family="sans-serif" font-size="12" lengthAdjust="spacingAndGlyphs" textLength="35" x="840.6" y="363.0352">Types</text><line style="stroke: #A80036; stroke-width: 1.5;" x1="800.5" x2="887.5" y1="374.5" y2="374.5"/><ellipse cx="810.5" cy="386.4775" fill="none" rx="3" ry="3" style="stroke: #038048; stroke-width: 1.0;"/><text fill="#000000" font-family="sans-serif" font-size="11" lengthAdjust="spacingAndGlyphs" textLength="63" x="819.5" y="389.1348">TEXT Name,</text><line style="stroke: #A80036; stroke-width: 1.5;" x1="800.5" x2="887.5" y1="395.4551" y2="395.4551"/><!--class TypeMatchups--><rect fill="#FEFECE" filter="url(#f1rzgwhwdwy07d)" height="86.8652" id="TypeMatchups" style="stroke: #A80036; stroke-width: 1.5;" width="197" x="745.5" y="521"/><ellipse cx="797.75" cy="537" fill="#ADD1B2" rx="11" ry="11" style="stroke: #A80036; stroke-width: 1.0;"/><path d="M800.2231,543.1431 Q799.6421,543.4419 799.0029,543.5913 Q798.3638,543.7407 797.6582,543.7407 Q795.1514,543.7407 793.8315,542.0889 Q792.5117,540.437 792.5117,537.3159 Q792.5117,534.1865 793.8315,532.5347 Q795.1514,530.8828 797.6582,530.8828 Q798.3638,530.8828 799.0112,531.0322 Q799.6587,531.1816 800.2231,531.4805 L800.2231,534.2031 Q799.5923,533.6221 798.9988,533.3523 Q798.4053,533.0825 797.7744,533.0825 Q796.4297,533.0825 795.7449,534.1492 Q795.0601,535.2158 795.0601,537.3159 Q795.0601,539.4077 795.7449,540.4744 Q796.4297,541.541 797.7744,541.541 Q798.4053,541.541 798.9988,541.2712 Q799.5923,541.0015 800.2231,540.4204 Z "/><text fill="#000000" font-family="sans-serif" font-size="12" lengthAdjust="spacingAndGlyphs" textLength="84" x="818.25" y="541.5352">TypeMatchups</text><line style="stroke: #A80036; stroke-width: 1.5;" x1="746.5" x2="941.5" y1="553" y2="553"/><ellipse cx="756.5" cy="564.9775" fill="none" rx="3" ry="3" style="stroke: #038048; stroke-width: 1.0;"/><text fill="#000000" font-family="sans-serif" font-size="11" lengthAdjust="spacingAndGlyphs" textLength="171" x="765.5" y="567.6348">INTEGER EffectivenessMultiplier,</text><line style="stroke: #A80036; stroke-width: 1.0;" x1="746.5" x2="941.5" y1="573.9551" y2="573.9551"/><polygon fill="none" points="756.5,581.9326,752.5,587.9326,760.5,587.9326" style="stroke: #1963A0; stroke-width: 1.0;"/><text fill="#000000" font-family="sans-serif" font-size="11" lengthAdjust="spacingAndGlyphs" textLength="22" x="765.5" y="588.5898">Self,</text><polygon fill="none" points="756.5,594.8877,752.5,600.8877,760.5,600.8877" style="stroke: #1963A0; stroke-width: 1.0;"/><text fill="#000000" font-family="sans-serif" font-size="11" lengthAdjust="spacingAndGlyphs" textLength="34" x="765.5" y="601.5449">Other,</text><!--class Attacks--><rect fill="#FEFECE" filter="url(#f1rzgwhwdwy07d)" height="125.7305" id="Attacks" style="stroke: #A80036; stroke-width: 1.5;" width="141" x="572.5" y="310.5"/><ellipse cx="617.75" cy="326.5" fill="#ADD1B2" rx="11" ry="11" style="stroke: #A80036; stroke-width: 1.0;"/><path d="M620.2231,332.6431 Q619.6421,332.9419 619.0029,333.0913 Q618.3638,333.2407 617.6582,333.2407 Q615.1514,333.2407 613.8315,331.5889 Q612.5117,329.937 612.5117,326.8159 Q612.5117,323.6865 613.8315,322.0347 Q615.1514,320.3828 617.6582,320.3828 Q618.3638,320.3828 619.0112,320.5322 Q619.6587,320.6816 620.2231,320.9805 L620.2231,323.7031 Q619.5923,323.1221 618.9988,322.8523 Q618.4053,322.5825 617.7744,322.5825 Q616.4297,322.5825 615.7449,323.6492 Q615.0601,324.7158 615.0601,326.8159 Q615.0601,328.9077 615.7449,329.9744 Q616.4297,331.041 617.7744,331.041 Q618.4053,331.041 618.9988,330.7712 Q619.5923,330.5015 620.2231,329.9204 Z "/><text fill="#000000" font-family="sans-serif" font-size="12" lengthAdjust="spacingAndGlyphs" textLength="42" x="638.25" y="331.0352">Attacks</text><line style="stroke: #A80036; stroke-width: 1.5;" x1="573.5" x2="712.5" y1="342.5" y2="342.5"/><ellipse cx="583.5" cy="354.4775" fill="none" rx="3" ry="3" style="stroke: #038048; stroke-width: 1.0;"/><text fill="#000000" font-family="sans-serif" font-size="11" lengthAdjust="spacingAndGlyphs" textLength="63" x="592.5" y="357.1348">TEXT Name,</text><ellipse cx="583.5" cy="367.4326" fill="none" rx="3" ry="3" style="stroke: #038048; stroke-width: 1.0;"/><text fill="#000000" font-family="sans-serif" font-size="11" lengthAdjust="spacingAndGlyphs" textLength="90" x="592.5" y="370.0898">INTEGER Priority,</text><ellipse cx="583.5" cy="380.3877" fill="none" rx="3" ry="3" style="stroke: #038048; stroke-width: 1.0;"/><text fill="#000000" font-family="sans-serif" font-size="11" lengthAdjust="spacingAndGlyphs" textLength="101" x="592.5" y="383.0449">INTEGER Accuracy,</text><ellipse cx="583.5" cy="393.3428" fill="none" rx="3" ry="3" style="stroke: #038048; stroke-width: 1.0;"/><text fill="#000000" font-family="sans-serif" font-size="11" lengthAdjust="spacingAndGlyphs" textLength="115" x="592.5" y="396">INTEGER? TMNumber,</text><ellipse cx="583.5" cy="406.2979" fill="none" rx="3" ry="3" style="stroke: #038048; stroke-width: 1.0;"/><text fill="#000000" font-family="sans-serif" font-size="11" lengthAdjust="spacingAndGlyphs" textLength="63" x="592.5" y="408.9551">INTEGER PP,</text><ellipse cx="583.5" cy="419.2529" fill="none" rx="3" ry="3" style="stroke: #038048; stroke-width: 1.0;"/><text fill="#000000" font-family="sans-serif" font-size="11" lengthAdjust="spacingAndGlyphs" textLength="83" x="592.5" y="421.9102">INTEGER Power,</text><line style="stroke: #A80036; stroke-width: 1.5;" x1="573.5" x2="712.5" y1="428.2305" y2="428.2305"/><!--class AttackTypes--><rect fill="#FEFECE" filter="url(#f1rzgwhwdwy07d)" height="73.9102" id="AttackTypes" style="stroke: #A80036; stroke-width: 1.5;" width="103" x="591.5" y="527"/><ellipse cx="606.5" cy="543" fill="#ADD1B2" rx="11" ry="11" style="stroke: #A80036; stroke-width: 1.0;"/><path d="M608.9731,549.1431 Q608.3921,549.4419 607.7529,549.5913 Q607.1138,549.7407 606.4082,549.7407 Q603.9014,549.7407 602.5815,548.0889 Q601.2617,546.437 601.2617,543.3159 Q601.2617,540.1865 602.5815,538.5347 Q603.9014,536.8828 606.4082,536.8828 Q607.1138,536.8828 607.7612,537.0322 Q608.4087,537.1816 608.9731,537.4805 L608.9731,540.2031 Q608.3423,539.6221 607.7488,539.3523 Q607.1553,539.0825 606.5244,539.0825 Q605.1797,539.0825 604.4949,540.1492 Q603.8101,541.2158 603.8101,543.3159 Q603.8101,545.4077 604.4949,546.4744 Q605.1797,547.541 606.5244,547.541 Q607.1553,547.541 607.7488,547.2712 Q608.3423,547.0015 608.9731,546.4204 Z "/><text fill="#000000" font-family="sans-serif" font-size="12" lengthAdjust="spacingAndGlyphs" textLength="71" x="620.5" y="547.5352">AttackTypes</text><line style="stroke: #A80036; stroke-width: 1.5;" x1="592.5" x2="693.5" y1="559" y2="559"/><line style="stroke: #A80036; stroke-width: 1.0;" x1="592.5" x2="693.5" y1="567" y2="567"/><polygon fill="none" points="602.5,574.9775,598.5,580.9775,606.5,580.9775" style="stroke: #1963A0; stroke-width: 1.0;"/><text fill="#000000" font-family="sans-serif" font-size="11" lengthAdjust="spacingAndGlyphs" textLength="37" x="611.5" y="581.6348">Attack,</text><polygon fill="none" points="602.5,587.9326,598.5,593.9326,606.5,593.9326" style="stroke: #1963A0; stroke-width: 1.0;"/><text fill="#000000" font-family="sans-serif" font-size="11" lengthAdjust="spacingAndGlyphs" textLength="26" x="611.5" y="594.5898">Type</text><!--class Media--><rect fill="#FEFECE" filter="url(#f1rzgwhwdwy07d)" height="99.8203" id="Media" style="stroke: #A80036; stroke-width: 1.5;" width="106" x="207" y="324"/><ellipse cx="239.55" cy="340" fill="#ADD1B2" rx="11" ry="11" style="stroke: #A80036; stroke-width: 1.0;"/><path d="M242.0231,346.1431 Q241.4421,346.4419 240.8029,346.5913 Q240.1638,346.7407 239.4582,346.7407 Q236.9514,346.7407 235.6315,345.0889 Q234.3117,343.437 234.3117,340.3159 Q234.3117,337.1865 235.6315,335.5347 Q236.9514,333.8828 239.4582,333.8828 Q240.1638,333.8828 240.8112,334.0322 Q241.4587,334.1816 242.0231,334.4805 L242.0231,337.2031 Q241.3923,336.6221 240.7988,336.3523 Q240.2053,336.0825 239.5744,336.0825 Q238.2297,336.0825 237.5449,337.1492 Q236.8601,338.2158 236.8601,340.3159 Q236.8601,342.4077 237.5449,343.4744 Q238.2297,344.541 239.5744,344.541 Q240.2053,344.541 240.7988,344.2712 Q241.3923,344.0015 242.0231,343.4204 Z "/><text fill="#000000" font-family="sans-serif" font-size="12" lengthAdjust="spacingAndGlyphs" textLength="35" x="257.45" y="344.5352">Media</text><line style="stroke: #A80036; stroke-width: 1.5;" x1="208" x2="312" y1="356" y2="356"/><ellipse cx="218" cy="367.9775" fill="none" rx="3" ry="3" style="stroke: #038048; stroke-width: 1.0;"/><text fill="#000000" font-family="sans-serif" font-size="11" lengthAdjust="spacingAndGlyphs" textLength="80" x="227" y="370.6348">TEXT Filename,</text><ellipse cx="218" cy="380.9326" fill="none" rx="3" ry="3" style="stroke: #038048; stroke-width: 1.0;"/><text fill="#000000" font-family="sans-serif" font-size="11" lengthAdjust="spacingAndGlyphs" textLength="57" x="227" y="383.5898">BLOB Data,</text><line style="stroke: #A80036; stroke-width: 1.0;" x1="208" x2="312" y1="389.9102" y2="389.9102"/><polygon fill="none" points="218,397.8877,214,403.8877,222,403.8877" style="stroke: #1963A0; stroke-width: 1.0;"/><text fill="#000000" font-family="sans-serif" font-size="11" lengthAdjust="spacingAndGlyphs" textLength="52" x="227" y="404.5449">Pokemon,</text><polygon fill="none" points="218,410.8428,214,416.8428,222,416.8428" style="stroke: #1963A0; stroke-width: 1.0;"/><text fill="#000000" font-family="sans-serif" font-size="11" lengthAdjust="spacingAndGlyphs" textLength="56" x="227" y="417.5">MIMEType,</text><!--class MIMETypes--><rect fill="#FEFECE" filter="url(#f1rzgwhwdwy07d)" height="86.8652" id="MIMETypes" style="stroke: #A80036; stroke-width: 1.5;" width="132" x="194" y="521"/><ellipse cx="224.75" cy="537" fill="#ADD1B2" rx="11" ry="11" style="stroke: #A80036; stroke-width: 1.0;"/><path d="M227.2231,543.1431 Q226.6421,543.4419 226.0029,543.5913 Q225.3638,543.7407 224.6582,543.7407 Q222.1514,543.7407 220.8315,542.0889 Q219.5117,540.437 219.5117,537.3159 Q219.5117,534.1865 220.8315,532.5347 Q222.1514,530.8828 224.6582,530.8828 Q225.3638,530.8828 226.0112,531.0322 Q226.6587,531.1816 227.2231,531.4805 L227.2231,534.2031 Q226.5923,533.6221 225.9988,533.3523 Q225.4053,533.0825 224.7744,533.0825 Q223.4297,533.0825 222.7449,534.1492 Q222.0601,535.2158 222.0601,537.3159 Q222.0601,539.4077 222.7449,540.4744 Q223.4297,541.541 224.7744,541.541 Q225.4053,541.541 225.9988,541.2712 Q226.5923,541.0015 227.2231,540.4204 Z "/><text fill="#000000" font-family="sans-serif" font-size="12" lengthAdjust="spacingAndGlyphs" textLength="65" x="242.25" y="541.5352">MIMETypes</text><line style="stroke: #A80036; stroke-width: 1.5;" x1="195" x2="325" y1="553" y2="553"/><ellipse cx="205" cy="564.9775" fill="none" rx="3" ry="3" style="stroke: #038048; stroke-width: 1.0;"/><text fill="#000000" font-family="sans-serif" font-size="11" lengthAdjust="spacingAndGlyphs" textLength="106" x="214" y="567.6348">TEXT FriendlyName,</text><ellipse cx="205" cy="577.9326" fill="none" rx="3" ry="3" style="stroke: #038048; stroke-width: 1.0;"/><text fill="#000000" font-family="sans-serif" font-size="11" lengthAdjust="spacingAndGlyphs" textLength="92" x="214" y="580.5898">TEXT MIMEString,</text><ellipse cx="205" cy="590.8877" fill="none" rx="3" ry="3" style="stroke: #038048; stroke-width: 1.0;"/><text fill="#000000" font-family="sans-serif" font-size="11" lengthAdjust="spacingAndGlyphs" textLength="86" x="214" y="593.5449">TEXT Extension,</text><line style="stroke: #A80036; stroke-width: 1.5;" x1="195" x2="325" y1="599.8652" y2="599.8652"/><!--class Games--><rect fill="#FEFECE" filter="url(#f1rzgwhwdwy07d)" height="86.8652" id="Games" style="stroke: #A80036; stroke-width: 1.5;" width="125" x="380.5" y="140"/><ellipse cx="419.35" cy="156" fill="#ADD1B2" rx="11" ry="11" style="stroke: #A80036; stroke-width: 1.0;"/><path d="M421.8231,162.1431 Q421.2421,162.4419 420.6029,162.5913 Q419.9638,162.7407 419.2582,162.7407 Q416.7514,162.7407 415.4315,161.0889 Q414.1117,159.437 414.1117,156.3159 Q414.1117,153.1865 415.4315,151.5347 Q416.7514,149.8828 419.2582,149.8828 Q419.9638,149.8828 420.6112,150.0322 Q421.2587,150.1816 421.8231,150.4805 L421.8231,153.2031 Q421.1923,152.6221 420.5988,152.3523 Q420.0053,152.0825 419.3744,152.0825 Q418.0297,152.0825 417.3449,153.1492 Q416.6601,154.2158 416.6601,156.3159 Q416.6601,158.4077 417.3449,159.4744 Q418.0297,160.541 419.3744,160.541 Q420.0053,160.541 420.5988,160.2712 Q421.1923,160.0015 421.8231,159.4204 Z "/><text fill="#000000" font-family="sans-serif" font-size="12" lengthAdjust="spacingAndGlyphs" textLength="40" x="438.65" y="160.5352">Games</text><line style="stroke: #A80036; stroke-width: 1.5;" x1="381.5" x2="504.5" y1="172" y2="172"/><ellipse cx="391.5" cy="183.9775" fill="none" rx="3" ry="3" style="stroke: #038048; stroke-width: 1.0;"/><text fill="#000000" font-family="sans-serif" font-size="11" lengthAdjust="spacingAndGlyphs" textLength="63" x="400.5" y="186.6348">TEXT Name,</text><ellipse cx="391.5" cy="196.9326" fill="none" rx="3" ry="3" style="stroke: #038048; stroke-width: 1.0;"/><text fill="#000000" font-family="sans-serif" font-size="11" lengthAdjust="spacingAndGlyphs" textLength="99" x="400.5" y="199.5898">DATE ReleaseDate,</text><line style="stroke: #A80036; stroke-width: 1.0;" x1="381.5" x2="504.5" y1="205.9102" y2="205.9102"/><polygon fill="none" points="391.5,213.8877,387.5,219.8877,395.5,219.8877" style="stroke: #1963A0; stroke-width: 1.0;"/><text fill="#000000" font-family="sans-serif" font-size="11" lengthAdjust="spacingAndGlyphs" textLength="45" x="400.5" y="220.5449">Platform</text><!--class Platforms--><rect fill="#FEFECE" filter="url(#f1rzgwhwdwy07d)" height="60.9551" id="Platforms" style="stroke: #A80036; stroke-width: 1.5;" width="89" x="398.5" y="12"/><ellipse cx="414.85" cy="28" fill="#ADD1B2" rx="11" ry="11" style="stroke: #A80036; stroke-width: 1.0;"/><path d="M417.3231,34.1431 Q416.7421,34.4419 416.1029,34.5913 Q415.4638,34.7407 414.7582,34.7407 Q412.2514,34.7407 410.9315,33.0889 Q409.6117,31.437 409.6117,28.3159 Q409.6117,25.1865 410.9315,23.5347 Q412.2514,21.8828 414.7582,21.8828 Q415.4638,21.8828 416.1112,22.0322 Q416.7587,22.1816 417.3231,22.4805 L417.3231,25.2031 Q416.6923,24.6221 416.0988,24.3523 Q415.5053,24.0825 414.8744,24.0825 Q413.5297,24.0825 412.8449,25.1492 Q412.1601,26.2158 412.1601,28.3159 Q412.1601,30.4077 412.8449,31.4744 Q413.5297,32.541 414.8744,32.541 Q415.5053,32.541 416.0988,32.2712 Q416.6923,32.0015 417.3231,31.4204 Z "/><text fill="#000000" font-family="sans-serif" font-size="12" lengthAdjust="spacingAndGlyphs" textLength="54" x="429.15" y="32.5352">Platforms</text><line style="stroke: #A80036; stroke-width: 1.5;" x1="399.5" x2="486.5" y1="44" y2="44"/><ellipse cx="409.5" cy="55.9775" fill="none" rx="3" ry="3" style="stroke: #038048; stroke-width: 1.0;"/><text fill="#000000" font-family="sans-serif" font-size="11" lengthAdjust="spacingAndGlyphs" textLength="63" x="418.5" y="58.6348">TEXT Name,</text><line style="stroke: #A80036; stroke-width: 1.5;" x1="399.5" x2="486.5" y1="64.9551" y2="64.9551"/><!--link Platforms to Games--><path d="M399,54 C332.1923,54 312.0671,193.4556 367.9182,211.977 " fill="none" id="Platforms-Games" style="stroke: #A80036; stroke-width: 1.0;"/><polygon fill="#A80036" points="381,214,375.6818,209.13,369.141,212.166,374.4591,217.036,381,214" style="stroke: #A80036; stroke-width: 1.0;"/><!--link Pokemon to Media--><path d="M217,194 C303.2621,194 136.4964,376.88 194.0952,397.5969 " fill="none" id="Pokemon-Media" style="stroke: #A80036; stroke-width: 1.0;"/><polygon fill="#A80036" points="207,399.5,201.6479,394.6673,195.1284,397.7491,200.4806,402.5817,207,399.5" style="stroke: #A80036; stroke-width: 1.0;"/><!--link Pokemon to PokemonAppearance--><path d="M217,194 C285.4502,194 303.4104,229.5294 339,288 C353.3489,311.574 338.613,399.0588 353.9346,424.5114 " fill="none" id="Pokemon-PokemonAppearance" style="stroke: #A80036; stroke-width: 1.0;"/><polygon fill="#A80036" points="365,431.5,362.0631,424.9141,354.8542,425.0921,357.7911,431.678,365,431.5" style="stroke: #A80036; stroke-width: 1.0;"/><!--link Pokemon to PokemonEvolutions--><path d="M128,194 C46.9476,194 218.4644,363.1895 168.9832,384.3381 " fill="none" id="Pokemon-PokemonEvolutions" style="stroke: #A80036; stroke-width: 1.0;"/><polygon fill="#A80036" points="156,386.5,162.5755,389.4602,167.837,384.529,161.2615,381.5688,156,386.5" style="stroke: #A80036; stroke-width: 1.0;"/><!--link Pokemon to PokemonEvolutions--><path d="M128,194 C41.6383,194 223.9958,375.2373 169.1246,396.476 " fill="none" id="Pokemon-PokemonEvolutions" style="stroke: #A80036; stroke-width: 1.0;"/><polygon fill="#A80036" points="156,398.5,162.5396,401.5388,167.8598,396.671,161.3202,393.6322,156,398.5" style="stroke: #A80036; stroke-width: 1.0;"/><!--link Games to PokemonAppearance--><path d="M381,182 C355.3014,182 339.8201,385.8021 356.573,433.5682 " fill="none" id="Games-PokemonAppearance" style="stroke: #A80036; stroke-width: 1.0;"/><polygon fill="#A80036" points="365,443.5,364.1682,436.337,357.2363,434.3499,358.0681,441.5128,365,443.5" style="stroke: #A80036; stroke-width: 1.0;"/><!--link PokemonAppearance to PokemonCanLearn--><path d="M522,334.5 C549.2222,334.5 536.7377,434.1123 522,457 C487.1115,511.1819 424.8885,462.8181 390,517 C377.221,536.8458 366.0142,567.4887 377.4083,578.7015 " fill="none" id="PokemonAppearance-PokemonCanLearn" style="stroke: #A80036; stroke-width: 1.0;"/><polygon fill="#A80036" points="390,583,385.6141,577.276,378.6435,579.1231,383.0295,584.847,390,583" style="stroke: #A80036; stroke-width: 1.0;"/><!--link Attacks to PokemonCanLearn--><path d="M573,352.5 C523.1519,352.5 572.9636,553.3832 541.0231,589.4794 " fill="none" id="Attacks-PokemonCanLearn" style="stroke: #A80036; stroke-width: 1.0;"/><polygon fill="#A80036" points="529,595,536.1218,596.1314,539.9053,589.9926,532.7835,588.8612,529,595" style="stroke: #A80036; stroke-width: 1.0;"/><!--link Attacks to AttackTypes--><path d="M573,352.5 C551.0956,352.5 562.9044,524.3828 582.9694,567.3535 " fill="none" id="Attacks-AttackTypes" style="stroke: #A80036; stroke-width: 1.0;"/><polygon fill="#A80036" points="592,577,590.8196,569.8862,583.799,568.2397,584.9794,575.3535,592,577" style="stroke: #A80036; stroke-width: 1.0;"/><!--link Types to AttackTypes--><path d="M800,384.5 C765.6049,384.5 734.6096,485.8618 720,517 C708.0847,542.3957 721.9899,575.1067 707.884,585.6009 " fill="none" id="Types-AttackTypes" style="stroke: #A80036; stroke-width: 1.0;"/><polygon fill="#A80036" points="695,589,701.8219,591.3371,706.603,585.9388,699.7811,583.6018,695,589" style="stroke: #A80036; stroke-width: 1.0;"/><!--link Types to TypeMatchups--><path d="M800,384.5 C759.2858,384.5 711.9992,541.9528 734.4373,576.3955 " fill="none" id="Types-TypeMatchups" style="stroke: #A80036; stroke-width: 1.0;"/><polygon fill="#A80036" points="746,583,742.774,576.5508,735.5801,577.0481,738.8061,583.4974,746,583" style="stroke: #A80036; stroke-width: 1.0;"/><!--link Types to TypeMatchups--><path d="M800,384.5 C756.6123,384.5 708.6174,554.4135 734.3382,588.9272 " fill="none" id="Types-TypeMatchups" style="stroke: #A80036; stroke-width: 1.0;"/><polygon fill="#A80036" points="746,595,742.5259,588.681,735.3567,589.4575,738.8308,595.7765,746,595" style="stroke: #A80036; stroke-width: 1.0;"/><!--link Media to MIMETypes--><path d="M313,411.5 C331.224,411.5 344.224,575 326,575 " fill="none" id="Media-MIMETypes" style="stroke: #A80036; stroke-width: 1.0;"/><!--
@startuml PokemonDB

class Pokemon {
    +TEXT Name,
}
class PokemonEvolutions{
    - - -
    ~Base,
    ~Evolution,
}
class PokemonAppearance{
    +INTEGER ID,
    +INTEGER BaseHP,
    +INTEGER BaseSpeed,
    +INTEGER BaseAttack,
    +INTEGER BaseDefence,
    +INTEGER BaseSpAttack,
    +INTEGER BaseSpDefence,
    - - -
    ~Pokemon,
    ~Game,
}
class PokemonCanLearn{
    +INTEGER AtLevel,
    - - -
    ~Appearance,
    ~Attack,
}
class Types{
    +TEXT Name,
}
class TypeMatchups{
    +INTEGER EffectivenessMultiplier,
    - - -
    ~Self,
    ~Other,
}
class Attacks{
    +TEXT Name,
    +INTEGER Priority,
    +INTEGER Accuracy,
    +INTEGER? TMNumber,
    +INTEGER PP,
    +INTEGER Power,
}
class AttackTypes{
    - - -
    ~Attack,
    ~Type
}
class Media{
    +TEXT Filename,
    +BLOB Data,
    - - -
    ~Pokemon,
    ~MIMEType,
}
class MIMETypes{
    +TEXT FriendlyName,
    +TEXT MIMEString,
    +TEXT Extension,
}
class Games{
    +TEXT Name,
    +DATE ReleaseDate,
    - - -
    ~Platform
}
class Platforms{
    +TEXT Name,
}

Platforms::Name - -* Games::Platform
Pokemon::Name - -* Media::Pokemon
Pokemon::Name - -* PokemonAppearance::Pokemon
Pokemon::Name - -* PokemonEvolutions::Base
Pokemon::Name - -* PokemonEvolutions::Evolution
Games::Name - -* PokemonAppearance::Game
PokemonAppearance::ID - -* PokemonCanLearn::Appearance
Attacks::Name - -* PokemonCanLearn::Attack
Attacks::Name - -* AttackTypes::Attack
Types::Name - -* AttackTypes::Type
Types::Name - -* TypeMatchups::Self
Types::Name - -* TypeMatchups::Other
Media::MIMEType - - MIMETypes::MIMEString
@enduml

PlantUML version 1.2019.03(Sun Mar 10 06:04:44 CDT 2019)
(GPL source distribution)
Java Runtime: OpenJDK Runtime Environment
JVM: OpenJDK 64-Bit Server VM
Java Version: 11.0.2+9
Operating System: Mac OS X
OS Version: 10.14.3
Default Encoding: UTF-8
Language: en
Country: US
--></g></svg>